<mxfile host="65bd71144e">
    <diagram id="hTz52bI8ME3vybYbcinQ" name="Page-1">
        <mxGraphModel dx="1132" dy="528" grid="1" gridSize="10" guides="1" tooltips="1" connect="1" arrows="1" fold="1" page="1" pageScale="1" pageWidth="850" pageHeight="1100" math="0" shadow="0">
            <root>
                <mxCell id="0"/>
                <mxCell id="1" parent="0"/>
                <mxCell id="3" value="WServer11&lt;br&gt;Static IP&lt;br&gt;192.168.11.3" style="aspect=fixed;perimeter=ellipsePerimeter;html=1;align=center;shadow=0;dashed=0;spacingTop=3;image;image=img/lib/active_directory/database_server.svg;" vertex="1" parent="1">
                    <mxGeometry x="430" y="367.5" width="41" height="50" as="geometry"/>
                </mxCell>
                <mxCell id="9" style="edgeStyle=none;html=1;" edge="1" parent="1" source="4">
                    <mxGeometry relative="1" as="geometry">
                        <mxPoint x="410" y="370" as="targetPoint"/>
                    </mxGeometry>
                </mxCell>
                <mxCell id="10" style="edgeStyle=none;html=1;" edge="1" parent="1" source="4">
                    <mxGeometry relative="1" as="geometry">
                        <mxPoint x="210" y="370" as="targetPoint"/>
                    </mxGeometry>
                </mxCell>
                <mxCell id="4" value="pfSense&lt;br&gt;LAN intnet11&amp;nbsp;&lt;br&gt;192.168.11.1/24" style="image;html=1;image=img/lib/clip_art/networking/Router_Icon_128x128.png" vertex="1" parent="1">
                    <mxGeometry x="260" y="220" width="80" height="80" as="geometry"/>
                </mxCell>
                <mxCell id="11" style="edgeStyle=none;html=1;entryX=0.413;entryY=-0.025;entryDx=0;entryDy=0;entryPerimeter=0;" edge="1" parent="1" source="5" target="4">
                    <mxGeometry relative="1" as="geometry"/>
                </mxCell>
                <mxCell id="5" value="ISP WAN&lt;br&gt;10.0.2.6/24" style="image;html=1;image=img/lib/clip_art/networking/Cloud_128x128.png" vertex="1" parent="1">
                    <mxGeometry x="250" y="50" width="80" height="80" as="geometry"/>
                </mxCell>
                <mxCell id="6" value="Lab11w&lt;br&gt;Static IP&lt;br&gt;192.168.11.3&amp;nbsp;" style="verticalLabelPosition=bottom;html=1;verticalAlign=top;align=center;strokeColor=none;fillColor=#00BEF2;shape=mxgraph.azure.computer;pointerEvents=1;" vertex="1" parent="1">
                    <mxGeometry x="150" y="370" width="50" height="45" as="geometry"/>
                </mxCell>
                <mxCell id="12" value="Windows 2019&lt;br&gt;" style="text;html=1;align=center;verticalAlign=middle;resizable=0;points=[];autosize=1;strokeColor=none;fillColor=none;" vertex="1" parent="1">
                    <mxGeometry x="440" y="370" width="100" height="30" as="geometry"/>
                </mxCell>
                <mxCell id="13" value="Windows 10" style="text;html=1;align=center;verticalAlign=middle;resizable=0;points=[];autosize=1;strokeColor=none;fillColor=none;" vertex="1" parent="1">
                    <mxGeometry x="110" y="370" width="90" height="30" as="geometry"/>
                </mxCell>
            </root>
        </mxGraphModel>
    </diagram>
</mxfile>